<svg width="18" height="18" viewBox="0 0 18 18" fill="none" xmlns="http://www.w3.org/2000/svg">
<path d="M15.375 6.75H14.25V5.24999C14.25 2.35512 11.8949 0 9 0C6.10509 0 3.75001 2.35512 3.75001 5.24999V6.75H2.62501C2.41773 6.75 2.25 6.91773 2.25 7.12501V16.5C2.25 17.3273 2.92271 18 3.75001 18H14.25C15.0773 18 15.75 17.3273 15.75 16.5V7.12501C15.75 6.91773 15.5823 6.75 15.375 6.75ZM10.1228 14.5836C10.1345 14.6894 10.1005 14.7956 10.0294 14.8751C9.9584 14.9546 9.85658 15 9.75002 15H8.25001C8.14345 15 8.04164 14.9546 7.97059 14.8751C7.89954 14.7957 7.86547 14.6895 7.87721 14.5836L8.11378 12.4563C7.72963 12.1769 7.50002 11.7349 7.50002 11.25C7.50002 10.4227 8.17274 9.74999 9.00004 9.74999C9.82733 9.74999 10.5 10.4227 10.5 11.25C10.5 11.7349 10.2704 12.1769 9.88629 12.4563L10.1228 14.5836ZM12 6.75H6.00001V5.24999C6.00001 3.59582 7.34583 2.25 9 2.25C10.6542 2.25 12 3.59582 12 5.24999V6.75Z" fill="#DEDEDE"/>
</svg>
