<svg width="18" height="18" viewBox="0 0 18 18" fill="none" xmlns="http://www.w3.org/2000/svg">
<path d="M8.99999 8.80318C11.0013 8.80318 12.6238 6.83254 12.6238 4.40162C12.6238 1.97064 12.0911 0 8.99999 0C5.90887 0 5.37607 1.97064 5.37607 4.40162C5.37607 6.83254 6.99859 8.80318 8.99999 8.80318Z" fill="#DEDEDE"/>
<path d="M2.15532 15.5239C2.1547 15.3757 2.15408 15.4822 2.15532 15.5239V15.5239Z" fill="#DEDEDE"/>
<path d="M15.8444 15.6397C15.8463 15.5991 15.8451 15.3581 15.8444 15.6397V15.6397Z" fill="#DEDEDE"/>
<path d="M15.8367 15.3462C15.7696 11.1114 15.2165 9.90475 10.9843 9.14093C10.9843 9.14093 10.3886 9.90007 8.99998 9.90007C7.61141 9.90007 7.01556 9.14093 7.01556 9.14093C2.82953 9.89642 2.24284 11.0852 2.16569 15.2086C2.15937 15.5453 2.15644 15.563 2.1553 15.5239C2.15556 15.5971 2.15587 15.7326 2.15587 15.9688C2.15587 15.9688 3.16346 18 8.99998 18C14.8364 18 15.8441 15.9688 15.8441 15.9688C15.8441 15.817 15.8442 15.7115 15.8444 15.6397C15.8432 15.6639 15.841 15.617 15.8367 15.3462Z" fill="#DEDEDE"/>
</svg>
